<?xml version="1.0" encoding="iso-8859-1"?>
<!-- Uploaded to: SVG Repo, www.svgrepo.com, Generator: SVG Repo Mixer Tools -->
<!DOCTYPE svg PUBLIC "-//W3C//DTD SVG 1.1//EN" "http://www.w3.org/Graphics/SVG/1.1/DTD/svg11.dtd">
<svg fill="#000000" version="1.1" id="Capa_1" xmlns="http://www.w3.org/2000/svg" xmlns:xlink="http://www.w3.org/1999/xlink" 
	 width="800px" height="800px" viewBox="0 0 30.993 30.993"
	 xml:space="preserve">
<g>
	<g>
		<path d="M15.497,17.458c1.659,0,2.959-1.806,2.959-4.111s-1.3-4.11-2.959-4.11c-1.659,0-2.958,1.806-2.958,4.11
			C12.539,15.653,13.838,17.458,15.497,17.458z"/>
		<path d="M25.253,15.997l0.896-0.001c0.232,1.111,1.219,1.95,2.396,1.95c1.35,0,2.448-1.1,2.448-2.449s-1.099-2.449-2.448-2.45
			c-1.18,0-2.166,0.838-2.396,1.949l-0.896,0.001c-0.118-2.319-1.044-4.424-2.506-6.043l0.636-0.636
			c0.396,0.26,0.857,0.401,1.342,0.401c0.654,0,1.27-0.255,1.73-0.717c0.463-0.462,0.719-1.077,0.719-1.731
			c-0.002-0.654-0.256-1.269-0.719-1.731c-0.922-0.924-2.536-0.928-3.464-0.001c-0.463,0.463-0.718,1.078-0.718,1.732
			c0,0.484,0.143,0.945,0.4,1.34l-0.635,0.636c-1.619-1.462-3.725-2.388-6.043-2.506V4.846c1.111-0.231,1.949-1.218,1.949-2.397
			c0-1.35-1.099-2.448-2.449-2.448S13.048,1.1,13.048,2.449c0,1.179,0.838,2.165,1.948,2.397v0.895
			c-2.319,0.118-4.423,1.044-6.042,2.506L8.318,7.612c0.261-0.396,0.401-0.856,0.401-1.341c0-0.654-0.255-1.271-0.718-1.732
			c-0.924-0.926-2.539-0.926-3.463,0c-0.954,0.955-0.954,2.509,0,3.464C5.001,8.465,5.615,8.72,6.269,8.72
			c0.483,0,0.945-0.142,1.341-0.401l0.636,0.636c-1.462,1.619-2.388,3.724-2.506,6.043H4.845c-0.231-1.111-1.219-1.95-2.397-1.95
			c-1.35,0-2.448,1.1-2.448,2.45c0,1.351,1.098,2.448,2.448,2.449c1.179,0,2.165-0.838,2.396-1.949H5.74
			c0.118,2.319,1.044,4.425,2.506,6.043l-0.639,0.64c-0.94-0.597-2.266-0.492-3.069,0.312c-0.463,0.463-0.717,1.077-0.717,1.731
			s0.255,1.271,0.718,1.731c0.462,0.462,1.076,0.718,1.73,0.718c0.654,0,1.27-0.255,1.732-0.718
			c0.833-0.833,0.938-2.123,0.316-3.071l0.635-0.637c1.619,1.463,3.723,2.389,6.042,2.506v0.896
			c-1.11,0.231-1.948,1.219-1.948,2.397c0,1.35,1.099,2.447,2.448,2.447c1.351,0,2.449-1.1,2.449-2.447
			c0-1.18-0.838-2.166-1.949-2.397v-0.896c2.318-0.117,4.424-1.044,6.043-2.506l0.635,0.635c-0.621,0.949-0.518,2.239,0.316,3.073
			c0.463,0.463,1.078,0.718,1.732,0.718c0.653,0,1.27-0.255,1.73-0.718c0.954-0.954,0.954-2.508,0-3.464
			c-0.463-0.463-1.078-0.717-1.73-0.717c-0.002,0,0,0-0.002,0c-0.482,0-0.945,0.141-1.341,0.4l-0.635-0.636
			C24.209,20.42,25.135,18.316,25.253,15.997z M15.497,6.716c4.843,0,8.781,3.939,8.781,8.781c0,1.801-0.546,3.475-1.479,4.87
			l-1.31-2.228c-0.091-0.151-0.254-0.246-0.431-0.246h-1.551c-0.203,0-0.388,0.123-0.464,0.312l-2.392,5.893
			c-0.013,0.031-0.007,0.063-0.013,0.097c-0.213,0.026-0.427,0.046-0.644,0.058v-5.367c0-0.275-0.224-0.5-0.5-0.5
			s-0.5,0.225-0.5,0.5v5.367c-0.131-0.008-0.264-0.007-0.394-0.02l-2.364-5.824c-0.076-0.188-0.26-0.312-0.463-0.312h-1.551
			c-0.177,0-0.341,0.095-0.431,0.246L8.42,20.676c-1.067-1.455-1.706-3.242-1.706-5.18C6.717,10.655,10.655,6.716,15.497,6.716z"/>
	</g>
</g>
</svg>