<svg width="77" height="65" viewBox="0 0 77 65" fill="none" xmlns="http://www.w3.org/2000/svg">
<path d="M14.2747 0.508916V0.5H13.7747H13.2747V0.508916C6.36365 0.755768 0.776453 6.09857 0.50995 12.783H0.5V13.283V13.783V51.217V51.717V52.217H0.50995C0.776453 58.9014 6.36364 64.2442 13.2747 64.4911V64.5H13.7747H14.2747V64.4911C21.1858 64.2442 26.773 58.9014 27.0395 52.217H27.0495V51.717V51.217V45.9064C29.28 49.5571 33.3389 52.0416 38 52.208V52.217H38.5H39V52.208C43.6611 52.0416 47.72 49.5571 49.9506 45.9064V51.217V51.717V52.217H49.9605C50.227 58.9014 55.8143 64.2442 62.7254 64.4911V64.5H63.2254H63.7254V64.4911C70.6365 64.2442 76.2235 58.9014 76.4901 52.217H76.5V51.717V51.217V13.783V13.283V12.783H76.4901C76.2235 6.09858 70.6364 0.755768 63.7254 0.508916V0.5H63.2254H62.7254V0.508916C57.3311 0.701589 52.7434 3.99879 50.8627 8.61533C48.982 3.99879 44.3942 0.701589 39 0.508916V0.5H38.5H38V0.508916C32.6057 0.701589 28.0181 3.99879 26.1374 8.61531C24.2567 3.99879 19.669 0.701589 14.2747 0.508916ZM51.7747 51.717V51.217V39.4339V38.9339H51.2747H50.4506H49.9506V39.4339C49.9506 45.4856 44.8427 50.4245 38.5 50.4245C32.1574 50.4245 27.0495 45.4856 27.0495 39.4339V38.9339H26.5495H25.7253H25.2253V39.4339V51.217V51.717C25.2253 57.7685 20.1173 62.7075 13.7747 62.7075C7.43209 62.7075 2.32418 57.7685 2.32418 51.717V51.217V13.783V13.283C2.32418 7.2314 7.43209 2.29245 13.7747 2.29245C20.1173 2.29245 25.2253 7.23141 25.2253 13.283V13.783H25.7253H26.5495H27.0495V13.283C27.0495 7.23141 32.1574 2.29245 38.5 2.29245C44.8427 2.29245 49.9506 7.23142 49.9506 13.283V13.783H50.4506H51.2747H51.7747V13.283C51.7747 7.23141 56.8826 2.29245 63.2254 2.29245C69.568 2.29245 74.6758 7.2314 74.6758 13.283V13.783V51.217V51.717C74.6758 57.7685 69.568 62.7075 63.2254 62.7075C56.8826 62.7075 51.7747 57.7685 51.7747 51.717Z" fill="#35424F" stroke="#35424F"/>
</svg>
