<svg width="173" height="72" viewBox="0 0 173 72" fill="none" xmlns="http://www.w3.org/2000/svg">
<path d="M87.752 33.4266H82.0126V23.9178C82.0126 22.3399 81.0792 21.4322 79.6443 21.4322C78.2764 21.4322 77.3418 22.3399 77.3418 23.9178V33.4266H71.6024V23.9178C71.6024 22.3399 70.669 21.4322 69.2341 21.4322C67.8662 21.4322 66.9317 22.3399 66.9317 23.9178V33.4266H61.1934V16.6284H66.4314V17.9389C67.6326 16.796 69.1669 16.2256 71.0029 16.2256C73.0714 16.2256 74.6727 16.9313 75.8397 18.375C77.1746 17.0312 79.146 16.2256 81.3128 16.2256C85.2803 16.2256 87.752 18.9132 87.752 23.0789V33.4266Z" fill="#35424F" fill-opacity="0.92"/>
<path d="M91.6216 7.255C93.5898 7.255 95.158 8.76638 95.158 10.6817C95.158 12.5681 93.5898 14.075 91.6216 14.075C89.6533 14.075 88.1182 12.597 88.1182 10.6817C88.1182 8.76638 89.6533 7.255 91.6216 7.255ZM88.786 16.6284H94.5243V33.4265H88.786V16.6284Z" fill="#35424F" fill-opacity="0.92"/>
<path d="M112.008 33.4266H106.269V23.9179C106.269 22.4409 105.267 21.4322 103.834 21.4322C102.4 21.4322 101.431 22.4409 101.431 23.9179V33.4266H95.6914V16.6285H100.931V18.0056C102.165 16.8304 103.733 16.2301 105.634 16.2301C109.506 16.2301 112.008 18.9177 112.008 23.0834V33.4266Z" fill="#35424F" fill-opacity="0.92"/>
<path d="M115.878 7.255C117.846 7.255 119.414 8.76638 119.414 10.6817C119.414 12.5681 117.846 14.075 115.878 14.075C113.909 14.075 112.374 12.597 112.374 10.6817C112.374 8.76638 113.909 7.255 115.878 7.255ZM113.042 16.6284H118.78V33.4265H113.042V16.6284Z" fill="#35424F" fill-opacity="0.92"/>
<path d="M136.264 33.4266H130.525V23.9179C130.525 22.4409 129.523 21.4322 128.088 21.4322C126.653 21.4322 125.687 22.4409 125.687 23.9179V33.4266H119.947V16.6285H125.189V18.0056C126.423 16.8304 127.991 16.2301 129.892 16.2301C133.764 16.2301 136.266 18.9177 136.266 23.0834L136.264 33.4266Z" fill="#35424F" fill-opacity="0.92"/>
<path d="M154.48 16.6284V31.3771C154.48 37.1217 150.977 39.876 145.539 39.876C142.301 39.876 139.499 38.8686 137.131 36.8534L140.034 32.7874C141.735 34.098 143.236 34.7028 144.938 34.7028C147.107 34.7028 148.741 33.7286 148.741 31.7466V31.1417C147.707 32.1837 146.239 32.6866 144.37 32.6866C139.8 32.6866 136.463 29.4617 136.463 24.4227C136.463 19.3493 139.866 16.2256 144.37 16.2256C146.574 16.2256 148.208 16.9302 149.241 18.3417V16.6284H154.48ZM145.605 20.996C143.769 20.996 142.336 22.2056 142.336 24.355C142.336 26.5389 143.837 27.916 145.605 27.916C147.375 27.916 148.841 26.5722 148.841 24.3218C148.841 22.0713 147.373 20.9927 145.605 20.9927" fill="#35424F" fill-opacity="0.92"/>
<path d="M163.889 16.2256C168.86 16.1246 173.098 20.2204 172.997 25.0275C173.098 29.8314 168.86 33.9306 163.889 33.8294C158.917 33.9306 154.713 29.8346 154.813 25.0275C154.713 20.2226 158.917 16.1246 163.889 16.2256ZM163.922 21.5332C162.02 21.5332 160.685 22.9757 160.685 25.0275C160.685 27.1436 162.02 28.5208 163.922 28.5208C165.795 28.5208 167.126 27.0427 167.126 25.0275C167.126 23.0124 165.757 21.5332 163.922 21.5332Z" fill="#35424F" fill-opacity="0.92"/>
<path d="M71.2509 53.8957V58.7326C70.1474 59.0017 69.016 59.1374 67.8805 59.1366C63.1759 59.1366 60.5398 56.8517 60.5398 52.3166V46.7683H58.0049V41.93H60.5398V37.8986H66.2793V41.93H70.746V46.7683H66.2793V51.7394C66.2793 53.352 67.0509 53.9588 69.1447 53.9588L71.2509 53.8957Z" fill="#35424F" fill-opacity="0.92"/>
<path d="M77.1901 52.35C77.8237 53.6271 79.058 54.2651 80.9274 54.2651C82.4283 54.2685 83.8609 53.8246 85.2938 52.9546L87.3623 56.8851C85.4624 58.3646 83.1238 59.1577 80.7222 59.1365C75.2836 59.1365 71.3457 55.3071 71.3457 50.3348C71.3457 45.3954 75.2836 41.5328 80.2549 41.5328C85.0601 41.5328 88.2296 45.1614 88.2296 49.4946C88.229 50.4583 88.1057 51.418 87.8626 52.35H77.1901ZM82.7953 48.588C82.7623 47.0757 81.528 46.068 80.0259 46.068C78.593 46.068 77.4237 46.9745 76.9895 48.588H82.7953Z" fill="#35424F" fill-opacity="0.92"/>
<path d="M97.7471 41.5328C101.183 41.5328 103.852 43.2463 105.221 46.0348L101.254 49.092C100.352 47.6494 99.3185 46.8403 97.8164 46.8403C95.8151 46.8403 94.5101 48.2828 94.5101 50.3348C94.5101 52.3865 95.8119 53.828 97.8164 53.828C99.3185 53.828 100.351 52.9891 101.254 51.6085L105.221 54.6325C103.852 57.4211 101.183 59.1345 97.7471 59.1345C92.7755 59.2354 88.5382 55.204 88.6385 50.3325C88.5382 45.4611 92.7755 41.4297 97.7471 41.5305" fill="#35424F" fill-opacity="0.92"/>
<path d="M122.566 58.7337H116.828V49.2251C116.828 47.748 115.826 46.7394 114.392 46.7394C112.958 46.7394 111.99 47.748 111.99 49.2251V58.7337H106.25V29.8734H111.99V43.112C113.157 42.07 114.626 41.5328 116.327 41.5328C120.031 41.5328 122.566 44.2871 122.566 48.386V58.7337Z" fill="#35424F" fill-opacity="0.92"/>
<path d="M22.3118 12.5082C19.7519 14.1742 17.6476 16.4597 16.1912 19.1558C14.7347 21.8518 13.9727 24.8724 13.9746 27.9415" fill="#35424F" fill-opacity="0.92"/>
<path d="M39.3436 13.0198C37.0282 12.1706 34.549 11.8731 32.1006 12.1505C29.6519 12.428 27.3004 13.2728 25.2305 14.6188" fill="#35424F" fill-opacity="0.92"/>
<path d="M21.7969 27.9417H6.1475C6.13974 23.5578 7.22548 19.2421 9.30507 15.3906C11.3847 11.5391 14.3916 8.2751 18.0499 5.89807L26.5601 19.1176C25.0949 20.0687 23.8904 21.3751 23.057 22.9169C22.2236 24.4586 21.7881 26.1864 21.7903 27.9417" fill="#35424F" fill-opacity="0.92"/>
<path d="M29.9298 21.925L20.5225 7.31399C23.7176 5.23391 27.3482 3.92825 31.1293 3.49965C34.91 3.07105 38.7381 3.53117 42.3125 4.84385L36.3736 21.2004C35.3163 20.8138 34.1847 20.6783 33.0671 20.8046C31.9492 20.9309 30.8755 21.3155 29.9298 21.9284" fill="#35424F" fill-opacity="0.92"/>
<path d="M39.3827 17.5872C41.4426 18.5782 43.2011 20.1072 44.4744 22.015C45.7481 23.9228 46.4901 26.1395 46.6237 28.4343C46.7571 30.7291 46.2768 33.0179 45.2331 35.0622C44.1896 37.1068 42.6206 38.8319 40.6894 40.0582C38.7585 41.2845 36.5363 41.9671 34.2545 42.0345C31.9725 42.1022 29.7143 41.5525 27.715 40.4425C25.7158 39.3325 24.0487 37.7034 22.8875 35.7242C21.7263 33.7451 21.1134 31.4885 21.1126 29.1899H14.7988C14.7941 34.0397 16.6201 38.7099 19.9069 42.2551L31.9857 59.0402C32.1684 59.2934 32.4072 59.5005 32.6834 59.6445C32.9593 59.7888 33.2651 59.8659 33.576 59.8702C33.8869 59.8745 34.1944 59.8057 34.4743 59.6694C34.7542 59.5331 34.9988 59.3328 35.1882 59.0845L48.6667 41.4139L49.5483 40.2534L49.5572 40.2477C50.4806 38.9365 51.2378 37.5139 51.8108 36.0134C51.4315 36.9265 50.9826 37.8091 50.4685 38.6531C52.1011 35.7705 52.9575 32.5085 52.9537 29.1899C52.9417 25.5681 51.9186 22.0227 50.0015 18.9581C48.0844 15.8935 45.3503 13.4332 42.1116 11.8579L39.3827 17.5872Z" fill="#35424F" fill-opacity="0.92"/>
<path d="M28.3379 29.4117C28.3372 30.46 28.6452 31.4846 29.2229 32.3566C29.8005 33.2286 30.6222 33.9083 31.5837 34.31C32.545 34.7117 33.6031 34.8177 34.6241 34.614C35.6452 34.4103 36.5835 33.9063 37.32 33.1657C38.0568 32.4254 38.5589 31.4814 38.7629 30.4537C38.9667 29.426 38.8635 28.3603 38.4661 27.3916C38.0686 26.4229 37.395 25.5946 36.53 25.0115C35.665 24.4283 34.6477 24.1165 33.6068 24.1154C32.9154 24.1146 32.2306 24.2511 31.5918 24.5169C30.9526 24.7827 30.3718 25.1726 29.8827 25.6645C29.3933 26.1564 29.0051 26.7404 28.7401 27.3834C28.475 28.0264 28.3383 28.7157 28.3379 29.4117Z" fill="#35424F" fill-opacity="0.92"/>
</svg>
